<?xml version="1.0" encoding="UTF-8" standalone="no"?>
<!DOCTYPE svg PUBLIC "-//W3C//DTD SVG 1.1//EN"
 "http://www.w3.org/Graphics/SVG/1.1/DTD/svg11.dtd">
<!-- Generated by graphviz version 2.32.0 (20130829.2153)
 -->
<!-- Title: ezport Pages: 1 -->
<svg width="2582pt" height="292pt"
 viewBox="0.00 0.00 2582.00 292.00" xmlns="http://www.w3.org/2000/svg" xmlns:xlink="http://www.w3.org/1999/xlink">
<g id="graph0" class="graph" transform="scale(1 1) rotate(0) translate(4 288)">
<title>ezport</title>
<polygon fill="white" stroke="white" points="-4,5 -4,-288 2579,-288 2579,5 -4,5"/>
<!-- ENTRY -->
<g id="node1" class="node"><title>ENTRY</title>
<ellipse fill="black" stroke="black" cx="2" cy="-87" rx="1.8" ry="1.8"/>
</g>
<!-- 6 -->
<g id="node8" class="node"><title>6</title>
<ellipse fill="none" stroke="black" cx="96" cy="-87" rx="36" ry="36"/>
<ellipse fill="none" stroke="black" cx="96" cy="-87" rx="40" ry="40"/>
<text text-anchor="middle" x="96" y="-83.3" font-family="Times,serif" font-size="14.00">start</text>
</g>
<!-- ENTRY&#45;&gt;6 -->
<g id="edge16" class="edge"><title>ENTRY&#45;&gt;6</title>
<path fill="none" stroke="black" d="M4.0332,-87C8.48435,-87 26.657,-87 45.6024,-87"/>
<polygon fill="black" stroke="black" points="45.817,-90.5001 55.817,-87 45.8169,-83.5001 45.817,-90.5001"/>
<text text-anchor="middle" x="30" y="-90.8" font-family="Times,serif" font-size="14.00">IN</text>
</g>
<!-- err_1 -->
<g id="node2" class="node"><title>err_1</title>
<ellipse fill="none" stroke="black" cx="932" cy="-148" rx="7" ry="7"/>
</g>
<!-- err_2 -->
<g id="node3" class="node"><title>err_2</title>
<ellipse fill="none" stroke="black" cx="1348" cy="-196" rx="7" ry="7"/>
</g>
<!-- err_3 -->
<g id="node4" class="node"><title>err_3</title>
<ellipse fill="none" stroke="black" cx="1764" cy="-274" rx="7" ry="7"/>
</g>
<!-- err_4 -->
<g id="node5" class="node"><title>err_4</title>
<ellipse fill="none" stroke="black" cx="2180" cy="-109" rx="7" ry="7"/>
</g>
<!-- err_5 -->
<g id="node6" class="node"><title>err_5</title>
<ellipse fill="none" stroke="black" cx="2567" cy="-36" rx="7" ry="7"/>
</g>
<!-- err_6 -->
<g id="node7" class="node"><title>err_6</title>
<ellipse fill="none" stroke="black" cx="516" cy="-148" rx="7" ry="7"/>
</g>
<!-- 6&#45;&gt;err_6 -->
<g id="edge15" class="edge"><title>6&#45;&gt;err_6</title>
<path fill="none" stroke="black" d="M129.224,-109.699C137.013,-114.183 145.54,-118.325 154,-121 281.597,-161.345 446.681,-153.255 498.618,-149.39"/>
<polygon fill="black" stroke="black" points="499.162,-152.858 508.85,-148.57 498.602,-145.881 499.162,-152.858"/>
<text text-anchor="middle" x="308" y="-170.8" font-family="Times,serif" font-size="14.00">DEF / </text>
<text text-anchor="middle" x="308" y="-155.8" font-family="Times,serif" font-size="14.00">disable_timeout, disable_power, signal_leds_fail, restart</text>
</g>
<!-- 1 -->
<g id="node9" class="node"><title>1</title>
<ellipse fill="none" stroke="black" cx="516" cy="-87" rx="36" ry="36"/>
<text text-anchor="middle" x="516" y="-83.3" font-family="Times,serif" font-size="14.00">starting</text>
</g>
<!-- 6&#45;&gt;1 -->
<g id="edge14" class="edge"><title>6&#45;&gt;1</title>
<path fill="none" stroke="black" d="M136.324,-87C214.186,-87 387.548,-87 469.895,-87"/>
<polygon fill="black" stroke="black" points="469.947,-90.5001 479.947,-87 469.947,-83.5001 469.947,-90.5001"/>
<text text-anchor="middle" x="308" y="-105.8" font-family="Times,serif" font-size="14.00">ev_button / </text>
<text text-anchor="middle" x="308" y="-90.8" font-family="Times,serif" font-size="14.00">init_vars, signal_leds_off, enable_power</text>
</g>
<!-- 1&#45;&gt;err_1 -->
<g id="edge2" class="edge"><title>1&#45;&gt;err_1</title>
<path fill="none" stroke="black" d="M545.109,-108.655C552.798,-113.539 561.394,-118.124 570,-121 696.924,-163.416 862.455,-153.952 914.561,-149.566"/>
<polygon fill="black" stroke="black" points="915.183,-153.024 924.828,-148.639 914.553,-146.053 915.183,-153.024"/>
<text text-anchor="middle" x="724" y="-171.8" font-family="Times,serif" font-size="14.00">DEF / </text>
<text text-anchor="middle" x="724" y="-156.8" font-family="Times,serif" font-size="14.00">disable_timeout, disable_power, signal_leds_fail, restart</text>
</g>
<!-- 2 -->
<g id="node10" class="node"><title>2</title>
<ellipse fill="none" stroke="black" cx="932" cy="-87" rx="36" ry="36"/>
<text text-anchor="middle" x="932" y="-90.8" font-family="Times,serif" font-size="14.00">ezport_</text>
<text text-anchor="middle" x="932" y="-75.8" font-family="Times,serif" font-size="14.00">running</text>
</g>
<!-- 1&#45;&gt;2 -->
<g id="edge1" class="edge"><title>1&#45;&gt;2</title>
<path fill="none" stroke="black" d="M552.297,-87C627.306,-87 802.49,-87 885.643,-87"/>
<polygon fill="black" stroke="black" points="885.792,-90.5001 895.792,-87 885.792,-83.5001 885.792,-90.5001"/>
<text text-anchor="middle" x="724" y="-105.8" font-family="Times,serif" font-size="14.00">ev_reset / </text>
<text text-anchor="middle" x="724" y="-90.8" font-family="Times,serif" font-size="14.00">disable_timeout, enable_spi, check_status</text>
</g>
<!-- 2&#45;&gt;err_2 -->
<g id="edge4" class="edge"><title>2&#45;&gt;err_2</title>
<path fill="none" stroke="black" d="M961.39,-107.897C969.075,-112.791 977.6,-117.57 986,-121 1112.45,-172.627 1278.91,-190.296 1330.83,-194.749"/>
<polygon fill="black" stroke="black" points="1330.55,-198.238 1340.8,-195.558 1331.12,-191.261 1330.55,-198.238"/>
<text text-anchor="middle" x="1140" y="-208.8" font-family="Times,serif" font-size="14.00">DEF / </text>
<text text-anchor="middle" x="1140" y="-193.8" font-family="Times,serif" font-size="14.00">disable_timeout, disable_power, signal_leds_fail, restart</text>
</g>
<!-- 3 -->
<g id="node11" class="node"><title>3</title>
<ellipse fill="none" stroke="black" cx="1348" cy="-87" rx="36" ry="36"/>
<text text-anchor="middle" x="1348" y="-83.3" font-family="Times,serif" font-size="14.00">erasing</text>
</g>
<!-- 2&#45;&gt;3 -->
<g id="edge3" class="edge"><title>2&#45;&gt;3</title>
<path fill="none" stroke="black" d="M968.297,-87C1043.31,-87 1218.49,-87 1301.64,-87"/>
<polygon fill="black" stroke="black" points="1301.79,-90.5001 1311.79,-87 1301.79,-83.5001 1301.79,-90.5001"/>
<text text-anchor="middle" x="1140" y="-105.8" font-family="Times,serif" font-size="14.00">ev_cmd_done(not_write_protected) / </text>
<text text-anchor="middle" x="1140" y="-90.8" font-family="Times,serif" font-size="14.00">disable_timeout, bulk_erase, check_status</text>
</g>
<!-- 3&#45;&gt;err_3 -->
<g id="edge7" class="edge"><title>3&#45;&gt;err_3</title>
<path fill="none" stroke="black" d="M1378.18,-106.971C1385.79,-111.824 1394.07,-116.816 1402,-121 1531.01,-189.091 1697.01,-250.401 1747.66,-268.565"/>
<polygon fill="black" stroke="black" points="1746.73,-271.949 1757.32,-272.007 1749.08,-265.355 1746.73,-271.949"/>
<text text-anchor="middle" x="1556" y="-272.8" font-family="Times,serif" font-size="14.00">DEF / </text>
<text text-anchor="middle" x="1556" y="-257.8" font-family="Times,serif" font-size="14.00">disable_timeout, disable_power, signal_leds_fail, restart</text>
</g>
<!-- 3&#45;&gt;3 -->
<g id="edge6" class="edge"><title>3&#45;&gt;3</title>
<path fill="none" stroke="black" d="M1316.73,-104.978C1300,-122.2 1310.42,-141 1348,-141 1379.71,-141 1392.08,-127.616 1385.12,-113.089"/>
<polygon fill="black" stroke="black" points="1387.96,-111.038 1379.27,-104.978 1382.28,-115.135 1387.96,-111.038"/>
<text text-anchor="middle" x="1348" y="-159.8" font-family="Times,serif" font-size="14.00">ev_cmd_done(write_busy) / </text>
<text text-anchor="middle" x="1348" y="-144.8" font-family="Times,serif" font-size="14.00">check_status</text>
</g>
<!-- 4 -->
<g id="node12" class="node"><title>4</title>
<ellipse fill="none" stroke="black" cx="1764" cy="-87" rx="36" ry="36"/>
<text text-anchor="middle" x="1764" y="-90.8" font-family="Times,serif" font-size="14.00">program&#45;</text>
<text text-anchor="middle" x="1764" y="-75.8" font-family="Times,serif" font-size="14.00">ming</text>
</g>
<!-- 3&#45;&gt;4 -->
<g id="edge5" class="edge"><title>3&#45;&gt;4</title>
<path fill="none" stroke="black" d="M1384.3,-87C1459.31,-87 1634.49,-87 1717.64,-87"/>
<polygon fill="black" stroke="black" points="1717.79,-90.5001 1727.79,-87 1717.79,-83.5001 1717.79,-90.5001"/>
<text text-anchor="middle" x="1556" y="-105.8" font-family="Times,serif" font-size="14.00">ev_cmd_done(!write_busy) / </text>
<text text-anchor="middle" x="1556" y="-90.8" font-family="Times,serif" font-size="14.00">disable_timeout, program_sector, check_status</text>
</g>
<!-- 4&#45;&gt;err_4 -->
<g id="edge11" class="edge"><title>4&#45;&gt;err_4</title>
<path fill="none" stroke="black" d="M1800.3,-88.8757C1885.91,-93.425 2102.01,-104.909 2162.84,-108.141"/>
<polygon fill="black" stroke="black" points="2162.68,-111.638 2172.85,-108.673 2163.05,-104.648 2162.68,-111.638"/>
<text text-anchor="middle" x="1972" y="-123.8" font-family="Times,serif" font-size="14.00">DEF / </text>
<text text-anchor="middle" x="1972" y="-108.8" font-family="Times,serif" font-size="14.00">disable_timeout, disable_power, signal_leds_fail, restart</text>
</g>
<!-- 4&#45;&gt;4 -->
<g id="edge9" class="edge"><title>4&#45;&gt;4</title>
<path fill="none" stroke="black" d="M1744.67,-117.532C1743.34,-130.233 1749.78,-141 1764,-141 1774.22,-141 1780.42,-135.438 1782.61,-127.593"/>
<polygon fill="black" stroke="black" points="1786.11,-127.757 1783.33,-117.532 1779.12,-127.257 1786.11,-127.757"/>
<text text-anchor="middle" x="1764" y="-189.8" font-family="Times,serif" font-size="14.00"> </text>
<text text-anchor="middle" x="1764" y="-174.8" font-family="Times,serif" font-size="14.00">ev_cmd_done(write_busy, !program_data_left), </text>
<text text-anchor="middle" x="1764" y="-159.8" font-family="Times,serif" font-size="14.00">ev_cmd_done(write_busy, program_data_left) / </text>
<text text-anchor="middle" x="1764" y="-144.8" font-family="Times,serif" font-size="14.00">check_status</text>
</g>
<!-- 4&#45;&gt;4 -->
<g id="edge10" class="edge"><title>4&#45;&gt;4</title>
<path fill="none" stroke="black" d="M1737,-111.125C1714.58,-146.616 1723.58,-201 1764,-201 1801.11,-201 1811.73,-155.173 1795.88,-120.2"/>
<polygon fill="black" stroke="black" points="1798.82,-118.273 1791,-111.125 1792.66,-121.59 1798.82,-118.273"/>
<text text-anchor="middle" x="1764" y="-219.8" font-family="Times,serif" font-size="14.00">ev_cmd_done(!write_busy, program_data_left) / </text>
<text text-anchor="middle" x="1764" y="-204.8" font-family="Times,serif" font-size="14.00">disable_timeout, program_sector, check_status</text>
</g>
<!-- 5 -->
<g id="node13" class="node"><title>5</title>
<ellipse fill="none" stroke="black" cx="2180" cy="-36" rx="36" ry="36"/>
<text text-anchor="middle" x="2180" y="-39.8" font-family="Times,serif" font-size="14.00">app_</text>
<text text-anchor="middle" x="2180" y="-24.8" font-family="Times,serif" font-size="14.00">running</text>
</g>
<!-- 4&#45;&gt;5 -->
<g id="edge8" class="edge"><title>4&#45;&gt;5</title>
<path fill="none" stroke="black" d="M1793.85,-66.8345C1801.39,-62.5051 1809.73,-58.488 1818,-56 1875.79,-38.6113 2050.42,-36.0608 2133.77,-35.8685"/>
<polygon fill="black" stroke="black" points="2133.96,-39.3683 2143.95,-35.8557 2133.95,-32.3683 2133.96,-39.3683"/>
<text text-anchor="middle" x="1972" y="-74.8" font-family="Times,serif" font-size="14.00">ev_cmd_done(!write_busy, !program_data_left) / </text>
<text text-anchor="middle" x="1972" y="-59.8" font-family="Times,serif" font-size="14.00">disable_timeout, reset_target</text>
</g>
<!-- 5&#45;&gt;err_5 -->
<g id="edge13" class="edge"><title>5&#45;&gt;err_5</title>
<path fill="none" stroke="black" d="M2216.19,-36C2296.6,-36 2491.35,-36 2549.4,-36"/>
<polygon fill="black" stroke="black" points="2549.62,-39.5001 2559.62,-36 2549.62,-32.5001 2549.62,-39.5001"/>
<text text-anchor="middle" x="2388" y="-54.8" font-family="Times,serif" font-size="14.00">DEF / </text>
<text text-anchor="middle" x="2388" y="-39.8" font-family="Times,serif" font-size="14.00">disable_timeout, disable_power, signal_leds_fail, restart</text>
</g>
<!-- 5&#45;&gt;6 -->
<g id="edge12" class="edge"><title>5&#45;&gt;6</title>
<path fill="none" stroke="black" d="M2143.84,-34.1512C2072.46,-30.5622 1905.41,-23 1765,-23 515,-23 515,-23 515,-23 379.573,-23 222.278,-56.2308 144.949,-74.8017"/>
<polygon fill="black" stroke="black" points="143.918,-71.4502 135.026,-77.2101 145.569,-78.2527 143.918,-71.4502"/>
<text text-anchor="middle" x="1140" y="-41.8" font-family="Times,serif" font-size="14.00">ev_led / </text>
<text text-anchor="middle" x="1140" y="-26.8" font-family="Times,serif" font-size="14.00">disable_timeout, disable_power, signal_leds_success</text>
</g>
</g>
</svg>
